#!OML:ASF F:\VICON\USERDATA\INSTALL\rory3\rory3.ASF
:FULLY-SPECIFIED
:DEGREES
1618
root 5.50249 17.5028 0.857525 18.8428 1.50825 0.852042
lowerback -7.78859 -1.71764 7.95399
upperback -13.5989 -2.37343 0.877168
thorax -10.6315 -1.95156 -3.42148
lowerneck -3.9959 19.5167 11.2799
upperneck 9.18097 25.4025 0.0725557
head 4.75159 12.8868 0.0514603
rclavicle -2.38542e-014 -2.14687e-014
rhumerus -9.3172 -28.2813 28.6073
rradius 113.371
rwrist -61.7306
rhand -3.57225 -41.5107
rfingers 7.12502
rthumb 22.1647 -70.26
lclavicle -2.38542e-014 -2.14687e-014
lhumerus 25.2063 28.8775 -12.4677
lradius 31.9469
lwrist 54.754
lhand -21.3323 -12.808
lfingers 7.12502
lthumb 5.05345 17.1118
rfemur -14.2856 9.60191 -9.11145
rtibia 12.4578
rfoot -9.67457 -23.7331
rtoes 34.3046
lfemur -19.6445 2.54276 -30.6058
ltibia 16.1239
lfoot -14.4641 2.95908
ltoes 9.59122
1619
root 5.50011 17.502 0.862428 18.8619 1.51645 0.856203
lowerback -7.93463 -1.73542 7.9019
upperback -13.5086 -2.41268 0.900889
thorax -10.4377 -1.95576 -3.37559
lowerneck -4.4255 19.5901 11.1378
upperneck 9.41107 25.4442 0.2296
head 4.85442 12.9083 0.167851
rclavicle -1.13307e-014 -5.56597e-015
rhumerus -9.35892 -28.4162 28.6057
rradius 113.412
rwrist -61.7296
rhand -4.10445 -41.4873
rfingers 7.12502
rthumb 21.6537 -70.2965
lclavicle -1.13307e-014 -5.56597e-015
lhumerus 25.1291 29.0547 -12.4994
lradius 31.9289
lwrist 54.7653
lhand -20.7295 -12.5732
lfingers 7.12502
lthumb 5.63555 17.3319
rfemur -14.3679 9.57429 -9.10414
rtibia 12.6207
rfoot -9.38785 -23.8123
rtoes 33.8871
lfemur -19.6289 2.58212 -30.6103
ltibia 16.0725
lfoot -14.4687 2.91153
ltoes 9.48536
1620
root 5.49781 17.5018 0.862099 18.892 1.47481 0.887593
lowerback -7.95287 -1.74019 7.82824
upperback -13.4692 -2.42146 0.905565
thorax -10.3746 -1.94946 -3.33209
lowerneck -4.66057 19.6111 11.0112
upperneck 9.41943 25.4484 0.273573
head 4.87205 12.9058 0.215185
rclavicle -6.1822e-014 2.54444e-014
rhumerus -9.39275 -28.5485 28.6078
rradius 113.433
rwrist -61.754
rhand -4.41101 -41.4573
rfingers 7.12502
rthumb 21.3592 -70.3001
lclavicle -6.1822e-014 2.54444e-014
lhumerus 25.2013 29.3576 -12.3489
lradius 31.8397
lwrist 54.5137
lhand -20.3181 -12.6457
lfingers 7.12502
lthumb 6.03275 17.2484
rfemur -14.4606 9.60776 -9.16083
rtibia 12.6827
rfoot -8.77781 -24.0088
rtoes 32.637
lfemur -19.6466 2.59011 -30.6476
ltibia 16.032
lfoot -14.4052 2.9327
ltoes 9.56563
1621
root 5.49565 17.5027 0.860489 18.886 1.4406 0.882771
lowerback -7.82462 -1.73315 7.79874
upperback -13.5894 -2.39439 0.908257
thorax -10.5863 -1.94261 -3.30359
lowerneck -4.34232 19.5838 11.0238
upperneck 9.26923 25.4476 0.284644
head 4.77562 12.9091 0.173461
rclavicle -3.18055e-014 -1.98785e-014
rhumerus -9.37894 -28.4356 28.6488
rradius 113.488
rwrist -61.8713
rhand -4.32104 -41.4596
rfingers 7.12502
rthumb 21.4456 -70.2925
lclavicle -3.18055e-014 -1.98785e-014
lhumerus 25.335 29.2858 -12.1867
lradius 31.8002
lwrist 54.3823
lhand -20.1583 -12.8154
lfingers 7.12502
lthumb 6.18697 17.0743
rfemur -14.5315 9.68077 -9.16903
rtibia 12.7466
rfoot -8.47469 -24.1269
rtoes 31.944
lfemur -19.649 2.57902 -30.6362
ltibia 15.9878
lfoot -14.3243 2.99056
ltoes 9.60243
1622
root 5.49383 17.5032 0.862344 18.8801 1.42934 0.883056
lowerback -7.76931 -1.73007 7.79216
upperback -13.6719 -2.38268 0.892731
thorax -10.7159 -1.94345 -3.31158
lowerneck -4.2077 19.5927 11.0468
upperneck 9.315 25.462 0.409055
head 4.75656 12.9258 0.193611
rclavicle -3.97569e-015 -3.18055e-014
rhumerus -9.3889 -28.3452 28.6574
rradius 113.529
rwrist -61.9634
rhand -4.21082 -41.4873
rfingers 7.12502
rthumb 21.5515 -70.3082
lclavicle -3.97569e-015 -3.18055e-014
lhumerus 25.4757 29.3064 -12.0291
lradius 31.7541
lwrist 54.1729
lhand -19.9242 -12.858
lfingers 7.12502
lthumb 6.41301 17.0249
rfemur -14.5498 9.71508 -9.16525
rtibia 12.7881
rfoot -8.37956 -24.1589
rtoes 31.7029
lfemur -19.6292 2.57699 -30.6298
ltibia 15.9407
lfoot -14.3242 2.97729
ltoes 9.44429
1623
root 5.49293 17.5013 0.864195 18.8907 1.44083 0.906112
lowerback -7.82361 -1.73076 7.79744
upperback -13.6642 -2.39135 0.860921
thorax -10.6783 -1.94926 -3.35125
lowerneck -4.28585 19.6233 11.0262
upperneck 9.43205 25.4802 0.554841
head 4.78475 12.9422 0.250299
rclavicle 3.00165e-014 -2.14687e-014
rhumerus -9.41868 -28.3189 28.6263
rradius 113.53
rwrist -61.8423
rhand -3.91791 -41.467
rfingers 7.12502
rthumb 21.8328 -70.2554
lclavicle 3.00165e-014 -2.14687e-014
lhumerus 25.4885 29.2887 -12.0618
lradius 31.7429
lwrist 54.0812
lhand -19.8737 -12.9186
lfingers 7.12502
lthumb 6.4617 16.9628
rfemur -14.4864 9.66356 -9.17929
rtibia 12.707
rfoot -8.36028 -24.1211
rtoes 31.7724
lfemur -19.6427 2.5354 -30.64
ltibia 15.938
lfoot -14.3539 2.96188
ltoes 9.38809
